<?xml version="1.0" encoding="UTF-8"?>
<svg id="Layer_1" xmlns="http://www.w3.org/2000/svg" viewBox="0 0 450.31 450.31">
  <g>
    <path d="M225.16,0C100.81,0,0,100.81,0,225.16s100.81,225.16,225.16,225.16,225.16-100.81,225.16-225.16S349.51,0,225.16,0Zm73.06,331.89H150.83c-3.12,0-4.27-2.39-2.71-5.09l73.82-127.81c.78-1.35,1.5-2.03,3.09-2.03h0s1.81,.76,2.59,2.12l73.44,127.73c1.56,2.7,.29,5.09-2.83,5.09Zm80.39,0h-38.29c-2.35,0-5.12-1.55-6.29-3.59l-107-185.42h0c-.62-1.06-1.99-1.55-2.01-1.5-1.59,.05-1.71,.49-2.26,1.45l-107.35,185.47c-1.18,2.04-4.07,3.59-6.42,3.59h-37.37c-2.35,0-3.2-1.55-2.02-3.59L223.22,62.55c.44-.76,.22-1.24,1.8-1.43h0c0-.32,1.74,.1,2.47,1.37l153.26,265.81c1.18,2.04,.21,3.59-2.14,3.59Z" style="fill:#000; isolation:isolate; opacity:.99;"/>
    <polygon points="225.02 61.12 225.01 61.12 225.01 141.39 225.02 141.39 225.02 141.39 225.02 61.12" style="fill:#000; isolation:isolate; opacity:.99;"/>
  </g>
  <path d="M223.6,62.5L69.98,328.26c-1.18,2.04-.33,3.59,2.02,3.59h37.37c2.35,0,5.24-1.55,6.42-3.59l107.35-185.47c.56-.96,.68-1.4,2.27-1.45V61.07c-1.59,.19-1.37,.67-1.81,1.43Z" style="fill:#000; isolation:isolate; opacity:.5;"/>
  <path d="M222.32,198.94l-73.82,127.81c-1.56,2.7-.41,5.09,2.71,5.09h74.19V196.91c-1.59,0-2.31,.68-3.09,2.03Z" style="fill:#000; isolation:isolate; opacity:.5;"/>
	<style>
    @media (prefers-color-scheme:dark){:root{filter:invert(100%)}}
  </style>
</svg>