<?xml version="1.0" encoding="UTF-8"?><svg id="Layer_1" xmlns="http://www.w3.org/2000/svg" viewBox="0 0 392.44 340.51"><path d="M193.78,1.93L.66,336c-1.48,2.56-.42,4.51,2.54,4.51H50.18c2.96,0,6.59-1.95,8.07-4.51L193.2,102.85c.7-1.21,.85-1.76,2.85-1.82V.13c-2,.24-1.72,.84-2.27,1.8Z" style="fill:#7c3aed; opacity:.5;"/><path d="M198.58,102.92l134.5,233.08c1.48,2.56,4.96,4.51,7.91,4.51h48.13c2.96,0,4.17-1.95,2.69-4.51L199.15,1.86c-.92-1.6-3.11-2.13-3.11-1.73V101.03c0-.07,1.75,.55,2.53,1.9Z" style="fill:#9333ea;"/><path d="M192.17,173.44l-92.79,160.67c-1.96,3.39-.51,6.4,3.41,6.4h93.26V170.89c-2,0-2.9,.85-3.88,2.55Z" style="fill:#7c3aed; opacity:.5;"/><path d="M291.62,334.11l-92.32-160.56c-.98-1.7-3.25-2.66-3.25-2.66v169.62h92.01c3.92,0,5.52-3.01,3.56-6.4Z" style="fill:#9333ea; opacity:.99;"/></svg>